<svg width="40" height="40" viewBox="0 0 40 40" fill="none" xmlns="http://www.w3.org/2000/svg">
<path d="M3.33301 19.1002V27.4335C3.33301 31.2502 6.41634 34.3335 10.233 34.3335H29.7497C33.5663 34.3335 36.6663 31.2335 36.6663 27.4168V19.1002C36.6663 17.9835 35.7663 17.0835 34.6497 17.0835H5.34967C4.23301 17.0835 3.33301 17.9835 3.33301 19.1002ZM13.333 28.7502H9.99967C9.31634 28.7502 8.74967 28.1835 8.74967 27.5002C8.74967 26.8168 9.31634 26.2502 9.99967 26.2502H13.333C14.0163 26.2502 14.583 26.8168 14.583 27.5002C14.583 28.1835 14.0163 28.7502 13.333 28.7502ZM24.1663 28.7502H17.4997C16.8163 28.7502 16.2497 28.1835 16.2497 27.5002C16.2497 26.8168 16.8163 26.2502 17.4997 26.2502H24.1663C24.8497 26.2502 25.4163 26.8168 25.4163 27.5002C25.4163 28.1835 24.8497 28.7502 24.1663 28.7502Z" fill="#4E74F9"/>
<path d="M22.4997 7.68317V12.5665C22.4997 13.6832 21.5997 14.5832 20.483 14.5832H5.34967C4.21634 14.5832 3.33301 13.6498 3.33301 12.5332C3.34967 10.6498 4.09967 8.93317 5.34967 7.68317C6.59967 6.43317 8.33301 5.6665 10.233 5.6665H20.483C21.5997 5.6665 22.4997 6.5665 22.4997 7.68317Z" fill="#4E74F9"/>
<path d="M33.2833 3.3335H28.3833C26.2667 3.3335 25 4.60016 25 6.71683V11.6168C25 13.7335 26.2667 15.0002 28.3833 15.0002H33.2833C35.4 15.0002 36.6667 13.7335 36.6667 11.6168V6.71683C36.6667 4.60016 35.4 3.3335 33.2833 3.3335ZM33.9 10.8168C34.0833 11.0335 34.1833 11.2668 34.1833 11.5502C34.1833 11.7835 34.0833 12.0502 33.9 12.2335C33.5167 12.6168 32.8667 12.6168 32.4833 12.2335L30.8333 10.5835L29.2 12.2502C28.8167 12.6335 28.1667 12.6335 27.7667 12.2335C27.3833 11.8502 27.3833 11.2002 27.7667 10.8168L29.4333 9.1835L27.7833 7.5335C27.4 7.15016 27.3833 6.50016 27.7667 6.10016C28.15 5.70016 28.8 5.71683 29.2 6.11683L30.8333 7.76683L32.5 6.10016C32.8833 5.71683 33.5333 5.71683 33.9167 6.10016C34.1 6.31683 34.1833 6.56683 34.2 6.8335C34.2 7.06683 34.1 7.3335 33.9333 7.5335L32.2667 9.20016L33.9 10.8168Z" fill="#CB3A31"/>
</svg>
