<svg width="40" height="40" viewBox="0 0 40 40" fill="none" xmlns="http://www.w3.org/2000/svg">
<path d="M29.6833 9.15065V10.384L23.7833 6.96732C21.55 5.68398 18.4333 5.68398 16.2166 6.96732L10.3167 10.4007V9.15065C10.3167 5.40065 12.3667 3.33398 16.1167 3.33398H23.8833C27.6333 3.33398 29.6833 5.40065 29.6833 9.15065Z" fill="#FEC341"/>
<path d="M29.7334 13.2837L29.5 13.1671L27.2334 11.8671L22.5334 9.15039C21.1 8.31706 18.9 8.31706 17.4667 9.15039L12.7667 11.8504L10.5 13.1837L10.2 13.3337C7.28337 15.3004 7.08337 15.6671 7.08337 18.8171V26.3504C7.08337 29.5004 7.28337 29.8671 10.2667 31.8837L17.4667 36.0337C18.1834 36.4671 19.0834 36.6504 20 36.6504C20.9 36.6504 21.8167 36.4504 22.5334 36.0337L29.8 31.8337C32.7334 29.8671 32.9167 29.5171 32.9167 26.3504V18.8171C32.9167 15.6671 32.7167 15.3004 29.7334 13.2837ZM24.65 22.5004L23.6334 23.7504C23.4667 23.9337 23.35 24.2837 23.3667 24.5337L23.4667 26.1337C23.5334 27.1171 22.8334 27.6171 21.9167 27.2671L20.4334 26.6671C20.2 26.5837 19.8167 26.5837 19.5834 26.6671L18.1 27.2504C17.1834 27.6171 16.4834 27.1004 16.55 26.1171L16.65 24.5171C16.6667 24.2671 16.55 23.9171 16.3834 23.7337L15.35 22.5004C14.7167 21.7504 15 20.9171 15.95 20.6671L17.5 20.2671C17.75 20.2004 18.0334 19.9671 18.1667 19.7671L19.0334 18.4337C19.5667 17.6004 20.4167 17.6004 20.9667 18.4337L21.8334 19.7671C21.9667 19.9837 22.2667 20.2004 22.5 20.2671L24.05 20.6671C25 20.9171 25.2834 21.7504 24.65 22.5004Z" fill="#FEC341"/>
</svg>
