<svg width="16" height="16" viewBox="0 0 16 16" fill="none" xmlns="http://www.w3.org/2000/svg">
<path d="M8.77563 7.75953L8.77665 7.99559C8.77665 8.97668 8.71919 9.87112 8.63265 10.4542L8.55683 10.8168C8.51465 11.0088 8.45919 11.2275 8.40138 11.3391C8.18974 11.7474 7.77593 12 7.33303 12H7.29448C7.00576 11.9905 6.39922 11.7371 6.39922 11.7283C5.42323 11.3188 3.54031 10.0829 2.67066 9.20174L2.41795 8.93721C2.35178 8.86551 2.27743 8.78066 2.23127 8.71452C2.07709 8.51037 2 8.25776 2 8.00514C2 7.72315 2.08654 7.46099 2.25018 7.24656L2.50982 6.96635L2.56799 6.90655C3.35707 6.05104 5.41741 4.6521 6.49522 4.22398L6.65794 4.16161C6.85376 4.09143 7.12812 4.00771 7.29448 4C7.50612 4 7.70829 4.0492 7.90102 4.14614C8.14174 4.28199 8.33374 4.49642 8.43992 4.74904C8.50756 4.92381 8.61374 5.44887 8.61374 5.45842C8.71108 5.98783 8.76752 6.82321 8.77563 7.75953ZM14 8.00029C14 8.55913 13.5513 9.01223 12.9978 9.01223L10.5317 8.79413C10.0975 8.79413 9.74551 8.4387 9.74551 8.00029C9.74551 7.56115 10.0975 7.20646 10.5317 7.20646L12.9978 6.98836C13.5513 6.98836 14 7.44145 14 8.00029Z" fill="#3D3F40"/>
</svg>
