<svg width="20" height="20" viewBox="0 0 20 20" fill="none" xmlns="http://www.w3.org/2000/svg">
<path d="M13.3332 7.29175C12.9915 7.29175 12.7082 7.00841 12.7082 6.66675V3.75008C12.7082 2.85008 12.1498 2.29175 11.2498 2.29175H8.74984C7.84984 2.29175 7.2915 2.85008 7.2915 3.75008V6.66675C7.2915 7.00841 7.00817 7.29175 6.6665 7.29175C6.32484 7.29175 6.0415 7.00841 6.0415 6.66675V3.75008C6.0415 2.15841 7.15817 1.04175 8.74984 1.04175H11.2498C12.8415 1.04175 13.9582 2.15841 13.9582 3.75008V6.66675C13.9582 7.00841 13.6748 7.29175 13.3332 7.29175Z" fill="white"/>
<path d="M6.66686 14.8167C6.3252 14.8167 6.04186 14.5334 6.04186 14.1917C6.04186 13.8417 6.3252 13.5667 6.66686 13.5667H16.4669C16.7169 13.5667 16.9085 13.3501 16.8835 13.1001L16.3169 8.35841C16.1169 6.74175 15.8335 5.41675 13.0002 5.41675H7.0002C4.16686 5.41675 3.88353 6.74175 3.69186 8.35841L2.94186 14.6084C2.7002 16.6584 3.33353 18.3334 6.25853 18.3334H13.7419C16.3752 18.3334 17.1502 16.9751 17.1085 15.2084C17.1002 14.9834 16.9169 14.8167 16.6919 14.8167H6.66686Z" fill="white"/>
</svg>
