<svg width="40" height="40" viewBox="0 0 40 40" fill="none" xmlns="http://www.w3.org/2000/svg">
<path d="M36.6667 8.08322V27.8999C36.6667 29.5166 35.35 30.9999 33.7333 31.1999L33.2167 31.2666C30.4833 31.6332 26.6333 32.7666 23.5333 34.0666C22.45 34.5166 21.25 33.6999 21.25 32.5166V9.33322C21.25 8.71655 21.6 8.14989 22.15 7.84989C25.2 6.19989 29.8167 4.73322 32.95 4.46655H33.05C35.05 4.46655 36.6667 6.08322 36.6667 8.08322Z" fill="#4161D0"/>
<path d="M17.85 7.84989C14.8 6.19989 10.1833 4.73322 7.04998 4.46655H6.93332C4.93332 4.46655 3.31665 6.08322 3.31665 8.08322V27.8999C3.31665 29.5166 4.63332 30.9999 6.24998 31.1999L6.76665 31.2666C9.49998 31.6332 13.35 32.7666 16.45 34.0666C17.5333 34.5166 18.7333 33.6999 18.7333 32.5166V9.33322C18.7333 8.69989 18.4 8.14989 17.85 7.84989ZM8.33332 12.8999H12.0833C12.7667 12.8999 13.3333 13.4666 13.3333 14.1499C13.3333 14.8499 12.7667 15.3999 12.0833 15.3999H8.33332C7.64998 15.3999 7.08332 14.8499 7.08332 14.1499C7.08332 13.4666 7.64998 12.8999 8.33332 12.8999ZM13.3333 20.3999H8.33332C7.64998 20.3999 7.08332 19.8499 7.08332 19.1499C7.08332 18.4666 7.64998 17.8999 8.33332 17.8999H13.3333C14.0167 17.8999 14.5833 18.4666 14.5833 19.1499C14.5833 19.8499 14.0167 20.3999 13.3333 20.3999Z" fill="#4161D0"/>
</svg>
