<svg width="40" height="40" viewBox="0 0 40 40" fill="none" xmlns="http://www.w3.org/2000/svg">
<path d="M27.9166 5.93325V3.33325C27.9166 2.64992 27.35 2.08325 26.6666 2.08325C25.9833 2.08325 25.4166 2.64992 25.4166 3.33325V5.83325H14.5833V3.33325C14.5833 2.64992 14.0166 2.08325 13.3333 2.08325C12.65 2.08325 12.0833 2.64992 12.0833 3.33325V5.93325C7.58331 6.34992 5.39998 9.03325 5.06664 13.0166C5.03331 13.4999 5.43331 13.8999 5.89998 13.8999H34.1C34.5833 13.8999 34.9833 13.4833 34.9333 13.0166C34.6 9.03325 32.4166 6.34992 27.9166 5.93325Z" fill="#10A55F"/>
<path d="M31.6667 25C27.9833 25 25 27.9833 25 31.6667C25 32.9167 25.35 34.1 25.9667 35.1C27.1167 37.0333 29.2333 38.3333 31.6667 38.3333C34.1 38.3333 36.2167 37.0333 37.3667 35.1C37.9833 34.1 38.3333 32.9167 38.3333 31.6667C38.3333 27.9833 35.35 25 31.6667 25ZM35.1167 30.95L31.5667 34.2333C31.3333 34.45 31.0167 34.5667 30.7167 34.5667C30.4 34.5667 30.0833 34.45 29.8333 34.2L28.1833 32.55C27.7 32.0667 27.7 31.2667 28.1833 30.7833C28.6667 30.3 29.4667 30.3 29.95 30.7833L30.75 31.5833L33.4167 29.1167C33.9167 28.65 34.7167 28.6833 35.1833 29.1833C35.65 29.6833 35.6167 30.4667 35.1167 30.95Z" fill="#10A55F"/>
<path d="M33.3333 16.3999H6.66667C5.75 16.3999 5 17.1499 5 18.0666V28.3332C5 33.3332 7.5 36.6666 13.3333 36.6666H21.55C22.7 36.6666 23.5 35.5499 23.1333 34.4666C22.8 33.4999 22.5167 32.4332 22.5167 31.6666C22.5167 26.6166 26.6333 22.4999 31.6833 22.4999C32.1667 22.4999 32.65 22.5332 33.1167 22.6166C34.1167 22.7666 35.0167 21.9832 35.0167 20.9832V18.0832C35 17.1499 34.25 16.3999 33.3333 16.3999ZM15.35 30.3499C15.0333 30.6499 14.6 30.8332 14.1667 30.8332C13.7333 30.8332 13.3 30.6499 12.9833 30.3499C12.6833 30.0332 12.5 29.5999 12.5 29.1666C12.5 28.7332 12.6833 28.2999 12.9833 27.9832C13.15 27.8332 13.3167 27.7166 13.5333 27.6332C14.15 27.3666 14.8833 27.5166 15.35 27.9832C15.65 28.2999 15.8333 28.7332 15.8333 29.1666C15.8333 29.5999 15.65 30.0332 15.35 30.3499ZM15.35 24.5166C15.2667 24.5832 15.1833 24.6499 15.1 24.7166C15 24.7832 14.9 24.8332 14.8 24.8666C14.7 24.9166 14.6 24.9499 14.5 24.9666C14.3833 24.9832 14.2667 24.9999 14.1667 24.9999C13.7333 24.9999 13.3 24.8166 12.9833 24.5166C12.6833 24.1999 12.5 23.7666 12.5 23.3332C12.5 22.8999 12.6833 22.4666 12.9833 22.1499C13.3667 21.7666 13.95 21.5832 14.5 21.6999C14.6 21.7166 14.7 21.7499 14.8 21.7999C14.9 21.8332 15 21.8832 15.1 21.9499C15.1833 22.0166 15.2667 22.0832 15.35 22.1499C15.65 22.4666 15.8333 22.8999 15.8333 23.3332C15.8333 23.7666 15.65 24.1999 15.35 24.5166ZM21.1833 24.5166C20.8667 24.8166 20.4333 24.9999 20 24.9999C19.5667 24.9999 19.1333 24.8166 18.8167 24.5166C18.5167 24.1999 18.3333 23.7666 18.3333 23.3332C18.3333 22.8999 18.5167 22.4666 18.8167 22.1499C19.45 21.5332 20.5667 21.5332 21.1833 22.1499C21.4833 22.4666 21.6667 22.8999 21.6667 23.3332C21.6667 23.7666 21.4833 24.1999 21.1833 24.5166Z" fill="#10A55F"/>
</svg>
