<svg width="24" height="25" viewBox="0 0 24 25" fill="none" xmlns="http://www.w3.org/2000/svg">
<path d="M21 16.75H15C14.59 16.75 14.25 16.41 14.25 16C14.25 15.59 14.59 15.25 15 15.25H21C21.41 15.25 21.75 15.59 21.75 16C21.75 16.41 21.41 16.75 21 16.75Z" fill="#3D3F40"/>
<path d="M21 20.75H15C14.59 20.75 14.25 20.41 14.25 20C14.25 19.59 14.59 19.25 15 19.25H21C21.41 19.25 21.75 19.59 21.75 20C21.75 20.41 21.41 20.75 21 20.75Z" fill="#3D3F40"/>
<path d="M22 9.02V4.48C22 3.07 21.36 2.5 19.77 2.5H15.73C14.14 2.5 13.5 3.07 13.5 4.48V9.01C13.5 10.43 14.14 10.99 15.73 10.99H19.77C21.36 11 22 10.43 22 9.02Z" fill="#3D3F40"/>
<path d="M10.5 9.02V4.48C10.5 3.07 9.86 2.5 8.27 2.5H4.23C2.64 2.5 2 3.07 2 4.48V9.01C2 10.43 2.64 10.99 4.23 10.99H8.27C9.86 11 10.5 10.43 10.5 9.02Z" fill="#3D3F40"/>
<path d="M10.5 20.27V16.23C10.5 14.64 9.86 14 8.27 14H4.23C2.64 14 2 14.64 2 16.23V20.27C2 21.86 2.64 22.5 4.23 22.5H8.27C9.86 22.5 10.5 21.86 10.5 20.27Z" fill="#3D3F40"/>
</svg>
