<svg width="16" height="17" viewBox="0 0 16 17" fill="none" xmlns="http://www.w3.org/2000/svg">
<path d="M10.7935 1.83325H5.20683C2.78016 1.83325 1.3335 3.27992 1.3335 5.70659V11.2866C1.3335 13.7199 2.78016 15.1666 5.20683 15.1666H10.7868C13.2135 15.1666 14.6602 13.7199 14.6602 11.2933V5.70659C14.6668 3.27992 13.2202 1.83325 10.7935 1.83325ZM5.16683 6.59325C5.16683 6.05325 5.60683 5.60659 6.1535 5.60659C6.6935 5.60659 7.14016 6.04659 7.14016 6.59325C7.14016 7.13325 6.70016 7.57992 6.1535 7.57992C5.60683 7.57325 5.16683 7.13325 5.16683 6.59325ZM5.88016 11.1799C5.7535 11.1799 5.62683 11.1333 5.52683 11.0333C5.3335 10.8399 5.3335 10.5266 5.52683 10.3266L9.8935 5.95992C10.0868 5.76659 10.4068 5.76659 10.6002 5.95992C10.7935 6.15325 10.7935 6.47325 10.6002 6.66659L6.2335 11.0333C6.1335 11.1333 6.00683 11.1799 5.88016 11.1799ZM10.5135 11.3933C9.9735 11.3933 9.52683 10.9533 9.52683 10.4066C9.52683 9.86659 9.96683 9.41992 10.5135 9.41992C11.0535 9.41992 11.5002 9.85992 11.5002 10.4066C11.5002 10.9533 11.0602 11.3933 10.5135 11.3933Z" fill="#012950"/>
</svg>
