<svg width="88" height="88" viewBox="0 0 88 88" fill="none" xmlns="http://www.w3.org/2000/svg">
<circle cx="44" cy="44" r="42" fill="#43936C" stroke="white" stroke-width="4"/>
<path d="M56.5992 32.8284H55.9031L50.0215 26.9469C49.5517 26.477 48.7861 26.477 48.2988 26.9469C47.829 27.4167 47.829 28.1823 48.2988 28.6696L52.4577 32.8284H35.5438L39.7027 28.6696C40.1725 28.1997 40.1725 27.4341 39.7027 26.9469C39.2328 26.477 38.4672 26.477 37.9799 26.9469L32.1158 32.8284H31.4197C29.8536 32.8284 26.5996 32.8284 26.5996 37.2831C26.5996 38.971 26.9476 40.0847 27.6785 40.8156C28.0961 41.2506 28.6007 41.4768 29.1402 41.5986C29.6448 41.7204 30.1842 41.7378 30.7063 41.7378H57.2952C57.8346 41.7378 58.3393 41.703 58.8265 41.5986C60.2882 41.2506 61.4019 40.2065 61.4019 37.2831C61.4019 32.8284 58.1479 32.8284 56.5992 32.8284Z" fill="white"/>
<path d="M56.3369 44H31.6621C30.5833 44 29.7654 44.9571 29.9394 46.0185L31.4011 54.9627C31.8884 57.9557 33.1934 61.4011 38.988 61.4011H48.7501C54.6142 61.4011 55.6583 58.4603 56.2847 55.1715L58.0423 46.0707C58.2511 44.9919 57.4332 44 56.3369 44ZM49.0111 51.0475L43.3557 56.2678C43.1121 56.494 42.7989 56.6158 42.4682 56.6158C42.1376 56.6158 41.807 56.494 41.546 56.233L38.9358 53.6228C38.4312 53.1182 38.4312 52.2829 38.9358 51.7783C39.4578 51.2737 40.2757 51.2737 40.7977 51.7783L42.5204 53.501L47.2536 49.1333C47.7756 48.6461 48.6108 48.6809 49.0981 49.2029C49.5853 49.7424 49.5505 50.5602 49.0111 51.0475Z" fill="white"/>
</svg>
