<svg width="81" height="80" viewBox="0 0 81 80" fill="none" xmlns="http://www.w3.org/2000/svg">
<g clip-path="url(#clip0_1595_11246)">
<path d="M80.5 11.3499V68.6506C80.5 69.5392 79.7789 70.2602 78.8903 70.2602H2.10969C1.22109 70.2602 0.5 69.5392 0.5 68.6506V11.3499C0.5 10.4613 1.22109 9.74023 2.10969 9.74023H78.8903C79.7789 9.74023 80.5 10.4613 80.5 11.3499Z" fill="#E8E6ED"/>
<path d="M80.5001 11.3498V68.6504C80.5001 69.539 79.779 70.2601 78.8905 70.2601H59.61C77.4192 54.8445 77.0233 19.0005 76.6031 9.74023H78.8905C79.779 9.74008 80.5001 10.4612 80.5001 11.3498Z" fill="#D1D0D8"/>
<path d="M80.5 11.3499V19.886H0.5V11.3499C0.5 10.4613 1.22109 9.74023 2.10969 9.74023H78.8903C79.7789 9.74023 80.5 10.4613 80.5 11.3499Z" fill="#8B91B5"/>
<path d="M80.4998 11.3498V19.8859H76.664C76.796 15.4657 76.701 11.8874 76.6029 9.74023H78.8903C79.7787 9.74008 80.4998 10.4612 80.4998 11.3498Z" fill="#4E5BA6"/>
<path d="M6.94602 16.0198H6.92789C6.26117 16.0198 5.7207 15.4794 5.7207 14.8127C5.7207 14.1459 6.26117 13.6055 6.92789 13.6055H6.94602C7.61273 13.6055 8.1532 14.1459 8.1532 14.8127C8.1532 15.4792 7.61273 16.0198 6.94602 16.0198Z" fill="#363F72"/>
<path d="M10.5905 16.0198H10.5724C9.9057 16.0198 9.36523 15.4794 9.36523 14.8127C9.36523 14.1459 9.9057 13.6055 10.5724 13.6055H10.5905C11.2573 13.6055 11.7977 14.1459 11.7977 14.8127C11.7977 15.4792 11.2573 16.0198 10.5905 16.0198Z" fill="#363F72"/>
<path d="M14.2351 16.0198H14.217C13.5502 16.0198 13.0098 15.4794 13.0098 14.8127C13.0098 14.1459 13.5502 13.6055 14.217 13.6055H14.2351C14.9018 13.6055 15.4423 14.1459 15.4423 14.8127C15.4424 15.4792 14.902 16.0198 14.2351 16.0198Z" fill="#363F72"/>
<path d="M74.0721 16.0198H71.8257C71.159 16.0198 70.6185 15.4794 70.6185 14.8127C70.6185 14.1459 71.159 13.6055 71.8257 13.6055H74.0721C74.7388 13.6055 75.2793 14.1459 75.2793 14.8127C75.2793 15.4792 74.7388 16.0198 74.0721 16.0198Z" fill="#363F72"/>
<path d="M52.1831 37.5051C52.1831 40.2655 51.2263 42.8024 49.6257 44.8004C47.4846 47.4746 44.1926 49.1879 40.5004 49.1879C36.8082 49.1879 33.5162 47.4748 31.3751 44.8004C29.7743 42.8024 28.8177 40.2654 28.8177 37.5051C28.8177 31.0524 34.0479 25.8223 40.5006 25.8223C46.9532 25.8223 52.1831 31.0524 52.1831 37.5051Z" fill="#8B91B5"/>
<path d="M52.1831 37.5046C52.1831 40.2651 51.2264 42.802 49.6257 44.7999C47.4846 47.4741 44.1926 49.1874 40.5004 49.1874C38.1403 49.1874 35.9421 48.4879 34.1062 47.2815C35.0993 47.5576 36.1465 47.7051 37.2273 47.7051C40.9195 47.7051 44.2115 45.992 46.3526 43.3177C47.9534 41.3198 48.91 38.7827 48.91 36.0224C48.91 31.9301 46.8068 28.3298 43.6214 26.2441C48.5581 27.608 52.1831 32.1327 52.1831 37.5046Z" fill="#4E5BA6"/>
<path d="M44.7626 54.4359H36.2371C35.5704 54.4359 35.0299 53.8954 35.0299 53.2287C35.0299 52.562 35.5704 52.0215 36.2371 52.0215H44.7626C45.4293 52.0215 45.9698 52.562 45.9698 53.2287C45.9698 53.8954 45.4293 54.4359 44.7626 54.4359Z" fill="#4E5BA6"/>
<path d="M50.9236 62.6155H20.7502C20.0834 62.6155 19.543 62.0751 19.543 61.4084C19.543 60.7416 20.0834 60.2012 20.7502 60.2012H50.9237C51.5905 60.2012 52.1309 60.7416 52.1309 61.4084C52.1309 62.0751 51.5903 62.6155 50.9236 62.6155Z" fill="#AAAAB2"/>
<path d="M60.249 62.6155H55.825C55.1583 62.6155 54.6178 62.0751 54.6178 61.4084C54.6178 60.7416 55.1583 60.2012 55.825 60.2012H60.249C60.9158 60.2012 61.4562 60.7416 61.4562 61.4084C61.4564 62.0751 60.9158 62.6155 60.249 62.6155Z" fill="#AAAAB2"/>
<path d="M30.3883 66.2913H20.7502C20.0834 66.2913 19.543 65.7509 19.543 65.0841C19.543 64.4174 20.0834 63.877 20.7502 63.877H30.3883C31.055 63.877 31.5955 64.4174 31.5955 65.0841C31.5956 65.7507 31.055 66.2913 30.3883 66.2913Z" fill="#AAAAB2"/>
<path d="M60.2491 66.2913H34.9677C34.301 66.2913 33.7605 65.7509 33.7605 65.0841C33.7605 64.4174 34.301 63.877 34.9677 63.877H60.2491C60.9158 63.877 61.4563 64.4174 61.4563 65.0841C61.4564 65.7507 60.9158 66.2913 60.2491 66.2913Z" fill="#AAAAB2"/>
<path d="M42.2073 37.5045L44.9751 34.7367C45.4467 34.2653 45.4467 33.5009 44.9751 33.0293C44.5037 32.5579 43.7393 32.5579 43.2678 33.0293L40.5 35.7973L37.7322 33.0295C37.2608 32.5581 36.4964 32.5581 36.0248 33.0295C35.5533 33.5009 35.5533 34.2653 36.0248 34.7368L38.7926 37.5047L36.0248 40.2725C35.5533 40.7439 35.5533 41.5082 36.0248 41.9798C36.2606 42.2156 36.5695 42.3334 36.8784 42.3334C37.1873 42.3334 37.4964 42.2154 37.732 41.9798L40.5 39.2118L43.2678 41.9797C43.5036 42.2154 43.8125 42.3332 44.1214 42.3332C44.4303 42.3332 44.7394 42.2153 44.975 41.9797C45.4465 41.5082 45.4465 40.7439 44.975 40.2723L42.2073 37.5045Z" fill="#E8E6ED"/>
</g>
<defs>
<clipPath id="clip0_1595_11246">
<rect width="80" height="80" fill="white" transform="translate(0.5)"/>
</clipPath>
</defs>
</svg>
