<svg width="40" height="40" viewBox="0 0 40 40" fill="none" xmlns="http://www.w3.org/2000/svg">
<path d="M21.1294 33.2616C21.5873 33.3681 21.6293 33.9679 21.1833 34.1165L18.55 34.9832C11.9333 37.1165 8.44996 35.3332 6.29996 28.7165L4.16662 22.1332C2.03329 15.5165 3.79996 12.0165 10.4166 9.8832L11.9673 9.36967C12.3702 9.23626 12.7553 9.63761 12.6274 10.0423C12.4573 10.5802 12.3006 11.1605 12.15 11.7832L10.5166 18.7665C8.68329 26.6165 11.3666 30.9499 19.2166 32.8165L21.1294 33.2616Z" fill="#FEC341"/>
<path d="M28.6166 5.35083L25.8333 4.70083C20.2666 3.38416 16.95 4.46749 15 8.50083C14.5 9.51749 14.1 10.7508 13.7666 12.1675L12.1333 19.1508C10.5 26.1175 12.65 29.5508 19.6 31.2008L22.4 31.8675C23.3666 32.1008 24.2666 32.2508 25.1 32.3175C30.3 32.8175 33.0666 30.3842 34.4666 24.3675L36.1 17.4008C37.7333 10.4342 35.6 6.98416 28.6166 5.35083ZM25.4833 22.2175C25.3333 22.7842 24.8333 23.1508 24.2666 23.1508C24.1666 23.1508 24.0666 23.1342 23.95 23.1175L19.1 21.8842C18.4333 21.7175 18.0333 21.0342 18.2 20.3675C18.3666 19.7008 19.05 19.3008 19.7166 19.4675L24.5666 20.7008C25.25 20.8675 25.65 21.5508 25.4833 22.2175ZM30.3666 16.5842C30.2166 17.1508 29.7166 17.5175 29.15 17.5175C29.05 17.5175 28.95 17.5008 28.8333 17.4842L20.75 15.4342C20.0833 15.2675 19.6833 14.5842 19.85 13.9175C20.0166 13.2508 20.7 12.8508 21.3666 13.0175L29.45 15.0675C30.1333 15.2175 30.5333 15.9008 30.3666 16.5842Z" fill="#FEC341"/>
</svg>
