<svg width="28" height="24" viewBox="0 0 28 24" fill="none" xmlns="http://www.w3.org/2000/svg">
<path d="M24.8334 9.24991H8.71288L13.1844 4.77841C13.7003 4.26276 13.9902 3.5633 13.9904 2.83389C13.9905 2.10448 13.7009 1.40488 13.1853 0.88899C12.6696 0.3731 11.9702 0.0831798 11.2408 0.0830079C10.5114 0.082836 9.81177 0.372427 9.29588 0.888074L2.72154 7.46241C1.52029 8.66697 0.845703 10.2987 0.845703 11.9999C0.845703 13.7011 1.52029 15.3328 2.72154 16.5374L9.29588 23.1117C9.81177 23.6274 10.5114 23.917 11.2408 23.9168C11.9702 23.9166 12.6696 23.6267 13.1853 23.1108C13.7009 22.5949 13.9905 21.8953 13.9904 21.1659C13.9902 20.4365 13.7003 19.7371 13.1844 19.2214L8.71288 14.7499H24.8334C25.5627 14.7499 26.2622 14.4602 26.7779 13.9445C27.2936 13.4287 27.5834 12.7293 27.5834 11.9999C27.5834 11.2706 27.2936 10.5711 26.7779 10.0554C26.2622 9.53964 25.5627 9.24991 24.8334 9.24991Z" fill="#374957"/>
</svg>
