<svg width="24" height="25" viewBox="0 0 24 25" fill="none" xmlns="http://www.w3.org/2000/svg">
<path d="M11.9848 2.5C15.0535 2.5 17.5227 4.91479 17.5227 7.89601V9.42935C19.2451 9.96696 20.5 11.5261 20.5 13.3884V18.3253C20.5 20.6308 18.5886 22.5 16.2322 22.5H7.7688C5.41136 22.5 3.5 20.6308 3.5 18.3253V13.3884C3.5 11.5261 4.75595 9.96696 6.47729 9.42935V7.89601C6.48745 4.91479 8.95667 2.5 11.9848 2.5ZM11.9949 13.8843C11.5072 13.8843 11.1109 14.2718 11.1109 14.7488V16.9549C11.1109 17.4419 11.5072 17.8294 11.9949 17.8294C12.4928 17.8294 12.8891 17.4419 12.8891 16.9549V14.7488C12.8891 14.2718 12.4928 13.8843 11.9949 13.8843ZM12.0051 4.23904C9.94232 4.23904 8.26569 5.86878 8.25553 7.87613V9.21371H15.7445V7.89601C15.7445 5.87871 14.0678 4.23904 12.0051 4.23904Z" fill="#989B9E"/>
</svg>
