<svg width="24" height="25" viewBox="0 0 24 25" fill="none" xmlns="http://www.w3.org/2000/svg">
<path d="M16.8 2.5H14.2C11 2.5 9 4.5 9 7.7V11.75H15.25C15.66 11.75 16 12.09 16 12.5C16 12.91 15.66 13.25 15.25 13.25H9V17.3C9 20.5 11 22.5 14.2 22.5H16.79C19.99 22.5 21.99 20.5 21.99 17.3V7.7C22 4.5 20 2.5 16.8 2.5Z" fill="#BD251C"/>
<path d="M4.55994 11.7498L6.62994 9.67984C6.77994 9.52984 6.84994 9.33984 6.84994 9.14984C6.84994 8.95984 6.77994 8.75984 6.62994 8.61984C6.33994 8.32984 5.85994 8.32984 5.56994 8.61984L2.21994 11.9698C1.92994 12.2598 1.92994 12.7398 2.21994 13.0298L5.56994 16.3798C5.85994 16.6698 6.33994 16.6698 6.62994 16.3798C6.91994 16.0898 6.91994 15.6098 6.62994 15.3198L4.55994 13.2498H8.99994V11.7498H4.55994Z" fill="#BD251C"/>
</svg>
