<svg width="24" height="25" viewBox="0 0 24 25" fill="none" xmlns="http://www.w3.org/2000/svg">
<path d="M13.55 20.6599C13.29 20.7699 13.01 20.8699 12.71 20.9699L11.13 21.4899C7.15998 22.7699 5.06997 21.6999 3.77997 17.7299L2.49997 13.7799C1.21997 9.80992 2.27997 7.70992 6.24997 6.42992L7.78997 5.91992C7.59997 6.39992 7.43997 6.94992 7.28997 7.56992L6.30997 11.7599C5.20997 16.4699 6.81997 19.0699 11.53 20.1899L13.21 20.5899C13.32 20.6199 13.44 20.6399 13.55 20.6599Z" fill="#292D32"/>
<path d="M17.1701 3.7105L15.5001 3.3205C12.1601 2.5305 10.1701 3.1805 9.00006 5.6005C8.70006 6.2105 8.46006 6.9505 8.26006 7.8005L7.28006 11.9905C6.30006 16.1705 7.59006 18.2305 11.7601 19.2205L13.4401 19.6205C14.0201 19.7605 14.5601 19.8505 15.0601 19.8905C18.1801 20.1905 19.8401 18.7305 20.6801 15.1205L21.6601 10.9405C22.6401 6.7605 21.3601 4.6905 17.1701 3.7105Z" fill="#292D32"/>
</svg>
