<svg width="40" height="40" viewBox="0 0 40 40" fill="none" xmlns="http://www.w3.org/2000/svg">
<path d="M15 3.33325C10.6334 3.33325 7.08337 6.88325 7.08337 11.2499C7.08337 15.5333 10.4334 18.9999 14.8 19.1499C14.9334 19.1333 15.0667 19.1333 15.1667 19.1499C15.2 19.1499 15.2167 19.1499 15.25 19.1499C15.2667 19.1499 15.2667 19.1499 15.2834 19.1499C19.55 18.9999 22.9 15.5333 22.9167 11.2499C22.9167 6.88325 19.3667 3.33325 15 3.33325Z" fill="#FD853A"/>
<path d="M23.4667 23.5833C18.8167 20.4833 11.2334 20.4833 6.55006 23.5833C4.43339 25 3.26672 26.9166 3.26672 28.9666C3.26672 31.0166 4.43339 32.9166 6.53339 34.3166C8.86672 35.8833 11.9334 36.6666 15.0001 36.6666C18.0667 36.6666 21.1334 35.8833 23.4667 34.3166C25.5667 32.9 26.7334 31 26.7334 28.9333C26.7167 26.8833 25.5667 24.9833 23.4667 23.5833Z" fill="#FD853A"/>
<path d="M33.3167 12.2334C33.5834 15.4668 31.2834 18.3001 28.1001 18.6834C28.0834 18.6834 28.0834 18.6834 28.0667 18.6834H28.0167C27.9167 18.6834 27.8167 18.6834 27.7334 18.7167C26.1167 18.8001 24.6334 18.2834 23.5167 17.3334C25.2334 15.8001 26.2167 13.5001 26.0167 11.0001C25.9001 9.65008 25.4334 8.41675 24.7334 7.36675C25.3667 7.05008 26.1001 6.85009 26.8501 6.78342C30.1167 6.50009 33.0334 8.93342 33.3167 12.2334Z" fill="#FD853A"/>
<path d="M36.65 27.6501C36.5166 29.2668 35.4833 30.6668 33.75 31.6168C32.0833 32.5334 29.9833 32.9668 27.9 32.9168C29.1 31.8334 29.8 30.4834 29.9333 29.0501C30.1 26.9834 29.1167 25.0001 27.15 23.4168C26.0333 22.5334 24.7333 21.8334 23.3167 21.3168C27 20.2501 31.6333 20.9668 34.4833 23.2668C36.0166 24.5001 36.8 26.0501 36.65 27.6501Z" fill="#FD853A"/>
</svg>
