<svg width="128" height="128" viewBox="0 0 128 128" fill="none" xmlns="http://www.w3.org/2000/svg">
<g clip-path="url(#clip0_952_7719)">
<path d="M26.2001 54.0249C15.6385 60.0942 9.37404 70.8433 11.2359 81.7911C12.6059 89.8464 18.0923 96.3471 25.6656 100.111L25.6682 100.103L23.293 109.927C22.8831 111.622 24.3976 113.2 25.9529 112.68C35.8388 109.374 40.8008 103.697 40.8237 103.67C43.1247 103.701 45.4795 103.525 47.8583 103.121C52.8534 102.271 57.4184 100.512 61.343 98.0933L26.2001 54.0249Z" fill="#FFCF4D"/>
<path d="M30.0504 52.1056C28.7128 52.6774 27.4281 53.3206 26.2006 54.026C25.1683 58.3366 24.967 62.8233 25.7341 67.3341C28.5133 83.6755 43.1488 95.5366 61.3408 98.0901C62.7596 97.2155 64.0973 96.2573 65.3386 95.222L30.0504 52.1056Z" fill="#FFB629"/>
<path d="M107.106 80.7689L107.113 80.7779C107.106 80.7689 108.369 76.6355 108.369 76.6355C114.439 68.8713 119.122 60.0735 117.493 50.4968C117.385 49.8622 117.259 49.2348 117.114 48.6147C112.632 29.3899 90.7738 17.2133 67.2235 21.2185C43.7022 25.2188 27.1104 43.8955 29.1862 63.4947C29.2559 64.1519 29.3463 64.8104 29.4583 65.4691C32.9115 85.7735 58.9525 95.8226 79.3943 92.7837C82.6706 92.2967 85.79 91.3878 88.7568 90.3036C88.7981 90.3271 97.8025 95.4299 112.11 95.2273C114.361 95.1956 114.17 91.6906 114.17 91.6906L107.106 80.7689Z" fill="#4E74F9"/>
<path d="M114.171 91.6907C113.729 92.5918 112.873 93.2483 111.776 93.2638C99.2323 93.4413 90.765 89.5408 88.8402 88.5608C88.5683 88.4222 88.2529 88.4028 87.9651 88.5049C85.1347 89.5098 82.1585 90.2931 79.0607 90.82C55.5394 94.8202 33.7074 82.6782 29.1874 63.4947C29.257 64.1521 29.3467 64.8103 29.4587 65.4692C32.9119 85.7737 55.4186 98.8821 79.7287 94.7477C82.9941 94.1923 86.1244 93.352 89.0913 92.2677C89.1325 92.2912 98.137 97.394 112.444 97.1915C114.695 97.1598 115.941 94.428 114.641 92.4177L114.171 91.6907Z" fill="#4161D0"/>
<path d="M106.831 76.4487C106.59 76.7023 106.479 77.0532 106.538 77.3983L107.113 80.7774C115.216 72.4647 119.374 61.5538 117.493 50.4964C117.381 49.8365 117.248 49.1844 117.096 48.5399C118.177 58.7384 114.205 68.6872 106.831 76.4487Z" fill="#4161D0"/>
<path d="M90.2483 67.191L90.8554 61.3344L98.903 59.9658L101.412 65.2924C102.425 67.2542 105.283 65.8882 104.416 63.8778L95.5482 45.0527C94.8903 43.6557 93.4252 42.8913 91.903 43.1501C90.3806 43.4091 89.2508 44.6148 89.0915 46.151L86.9459 66.8489C86.7951 69.0432 89.9474 69.3683 90.2483 67.191ZM92.394 46.4934C92.3974 46.4596 92.4037 46.4455 92.4035 46.4453C92.424 46.4253 92.4946 46.4133 92.518 46.4241C92.5182 46.4243 92.5292 46.4346 92.5448 46.4675L97.4341 56.8477L91.2107 57.9061L92.394 46.4934Z" fill="#F2FDFF"/>
<path d="M60.3122 56.0785C59.6226 52.0242 55.7632 49.2866 51.7089 49.9761C47.6546 50.6656 44.9172 54.5252 45.6067 58.5795L47.2398 68.182C47.9293 72.2363 51.7887 74.9738 55.843 74.2842C57.5817 73.9885 59.0768 73.1088 60.1646 71.8819L61.5048 72.8297C62.2534 73.3592 63.2892 73.1813 63.8188 72.4329C64.3481 71.6843 64.1704 70.6484 63.4218 70.1191L61.7707 68.9513C62.063 67.9188 62.1368 66.8076 61.9453 65.681L60.3122 56.0785ZM57.2657 65.7656C56.517 65.2361 55.481 65.414 54.9516 66.1624C54.4223 66.911 54.6 67.9469 55.3486 68.4762L57.425 69.9445C56.8516 70.4851 56.1195 70.8691 55.2861 71.0109C53.0365 71.3934 50.8953 69.8745 50.5128 67.6251L48.8797 58.0227C48.497 55.7729 50.0158 53.6317 52.2653 53.2491C54.5149 52.8665 56.6563 54.3852 57.0389 56.635L58.672 66.2375C58.7039 66.4252 58.718 66.6115 58.724 66.7966L57.2657 65.7656Z" fill="#F2FDFF"/>
<path d="M67.854 68.1906C68.6346 70.2176 70.6414 71.5035 72.8475 71.391C73.0705 71.3794 73.2902 71.3551 73.5077 71.3181C75.7663 70.934 77.7153 69.1849 79.0324 66.4166L81.4209 69.1268C82.0273 69.8147 83.0762 69.8813 83.7639 69.2744C84.4516 68.6682 84.5177 67.6192 83.9117 66.9314L80.2759 62.8061C80.8027 60.9458 81.4589 58.8158 81.4664 58.7912C81.7365 57.9151 81.2453 56.986 80.3692 56.7157C79.4935 56.446 78.564 56.9368 78.2938 57.8131C78.2739 57.8779 78.006 58.7477 77.6763 59.8566L75.2044 57.0518C75.444 56.66 75.7191 56.1889 75.9891 55.6805C77.0932 53.6025 77.5126 52.0767 77.3088 50.8785C76.8298 48.0618 74.1486 46.1602 71.332 46.6392C68.5155 47.1182 66.6137 49.7994 67.0927 52.616C67.2965 53.8139 68.1967 55.1155 69.9257 56.7118C70.2467 57.0082 70.5627 57.2825 70.8522 57.5251C69.2577 59.8757 66.5031 64.6825 67.854 68.1906ZM71.8885 49.9122C72.9003 49.7401 73.8633 50.4232 74.0355 51.4348C74.1113 51.9251 73.5384 53.3129 72.7123 54.7564C71.4555 53.6671 70.4561 52.5469 70.3655 52.0594C70.1936 51.0475 70.8767 50.0843 71.8885 49.9122ZM73.2763 59.8855L76.5799 63.6341C75.5273 66.7963 73.9073 68.0115 72.6778 68.0748C71.8972 68.1147 71.2198 67.6917 70.9525 66.9975C70.2995 65.3015 71.8482 62.1218 73.2763 59.8855Z" fill="#F2FDFF"/>
</g>
<defs>
<clipPath id="clip0_952_7719">
<rect width="110" height="110" fill="white" transform="translate(0.557129 19) rotate(-9.65191)"/>
</clipPath>
</defs>
</svg>
