<svg width="192" height="192" viewBox="0 0 192 192" fill="none" xmlns="http://www.w3.org/2000/svg">
<g clip-path="url(#clip0_952_7716)">
<path d="M117.834 43.3907C111.939 33.8536 102.786 26.7764 92.0727 23.4702C81.3591 20.1641 69.8103 20.8531 59.5658 25.4096C49.3213 29.9661 41.0755 38.0813 36.3559 48.2517C31.6364 58.4221 30.763 69.9585 33.8976 80.7235C34.1682 81.5509 34.1256 82.4488 33.7779 83.2469L28.7145 94.0266C28.2309 95.055 28.0201 96.1906 28.1024 97.3242C28.1846 98.4577 28.5573 99.5509 29.1844 100.499C29.8115 101.447 30.672 102.217 31.6831 102.736C32.6942 103.255 33.8218 103.505 34.9575 103.462L47.0063 103.008C47.8683 102.996 48.7042 103.303 49.3547 103.868C54.7389 108.196 61.0252 111.262 67.7508 112.84C70.0261 113.382 72.3401 113.747 74.6718 113.93C83.2105 114.615 91.772 112.921 99.4061 109.035C107.04 105.15 113.448 99.2245 117.919 91.9177C122.39 84.611 124.749 76.2083 124.734 67.6422C124.719 59.0761 122.33 50.6817 117.834 43.3907ZM73.0458 90.2754C72.0898 90.0496 71.2223 89.5454 70.5528 88.8265C69.8834 88.1077 69.4421 87.2065 69.2849 86.2368C69.1276 85.2672 69.2614 84.2727 69.6694 83.3791C70.0773 82.4856 70.7411 81.733 71.5767 81.2167C72.4124 80.7003 73.3824 80.4434 74.364 80.4783C75.3457 80.5132 76.295 80.8385 77.0918 81.4129C77.8886 81.9874 78.4972 82.7852 78.8406 83.7055C79.184 84.6258 79.2468 85.6273 79.021 86.5833C78.7183 87.8653 77.9186 88.9744 76.7981 89.6668C75.6775 90.3592 74.3278 90.5781 73.0458 90.2754ZM83.5317 67.9162C82.9398 68.042 82.3982 68.3401 81.9752 68.7729C81.5521 69.2057 81.2665 69.7538 81.1541 70.3485L80.0734 74.9243C79.8716 75.779 79.3385 76.5184 78.5915 76.98C77.8444 77.4416 76.9446 77.5876 76.09 77.3857C75.2354 77.1839 74.4959 76.6508 74.0343 75.9038C73.5727 75.1567 73.4268 74.2569 73.6286 73.4023L74.7093 68.8264C75.1124 66.9535 76.0651 65.2433 77.4455 63.9148C78.826 62.5863 80.5713 61.6998 82.4584 61.3687C83.9637 61.1288 85.3407 60.3784 86.3582 59.2435C87.3758 58.1086 87.9721 56.6583 88.047 55.1358C88.0977 53.8024 87.7502 52.4842 87.0488 51.3491C86.3475 50.214 85.324 49.3134 84.1088 48.7623C83.2104 48.3601 82.2331 48.1652 81.2492 48.192C80.2652 48.2187 79.2999 48.4664 78.4247 48.9168C77.5643 49.3529 76.8095 49.9718 76.2132 50.73C75.6169 51.4883 75.1934 52.3677 74.9724 53.3068C74.7706 54.1614 74.2375 54.9008 73.4905 55.3624C72.7434 55.824 71.8436 55.97 70.989 55.7681C70.1344 55.5663 69.3949 55.0332 68.9333 54.2862C68.4717 53.5391 68.3258 52.6393 68.5276 51.7847C68.9789 49.8978 69.8378 48.1326 71.0441 46.6131C72.2503 45.0935 73.7746 43.8565 75.5099 42.9888C77.2451 42.1212 79.1493 41.644 81.0887 41.5907C83.0281 41.5374 84.9556 41.9094 86.7359 42.6805C89.1898 43.7786 91.2573 45.5885 92.6704 47.8755C94.0836 50.1625 94.7772 52.8213 94.6615 55.5072C94.5084 58.5375 93.3195 61.4234 91.2936 63.6822C89.2677 65.941 86.5276 67.4356 83.5317 67.9162Z" fill="#FD9D61"/>
<path d="M145.941 158.898C145.996 158.031 146.358 157.211 146.963 156.588C151.742 151.404 155.173 145.125 156.955 138.304C158.737 131.483 158.814 124.328 157.181 117.47C155.547 110.612 152.253 104.26 147.588 98.9742C142.923 93.6883 137.03 89.6302 130.428 87.1571C129.613 86.8626 128.798 86.568 127.968 86.3379L127.945 86.4346C123.909 97.2014 116.471 106.357 106.758 112.513C97.0463 118.668 85.591 121.486 74.1317 120.539C73.6976 120.505 73.2634 120.47 72.8369 120.403C72.6959 121.289 72.5871 122.182 72.4783 123.074C71.4898 132.762 73.8127 142.499 79.0683 150.697C84.3239 158.895 92.202 165.071 101.418 168.217C102.709 168.658 104.047 169.042 105.368 169.354C111.55 170.823 117.98 170.901 124.196 169.582C125.019 169.368 125.893 169.466 126.649 169.855L135.895 174.931C136.885 175.486 138.001 175.775 139.136 175.768C140.271 175.762 141.384 175.461 142.368 174.894C143.359 174.325 144.186 173.51 144.77 172.527C145.354 171.545 145.674 170.428 145.7 169.285L145.941 158.898ZM130.692 130.121L110.775 142.427C110.022 142.882 109.122 143.024 108.266 142.822C107.41 142.62 106.668 142.09 106.199 141.347L98.8148 129.396C98.3513 128.646 98.2047 127.743 98.4074 126.885C98.6101 126.026 99.1453 125.284 99.8954 124.821C100.646 124.357 101.549 124.211 102.407 124.413C103.265 124.616 104.008 125.151 104.471 125.901L110.1 135.056L127.197 124.464C127.947 124.001 128.85 123.854 129.709 124.057C130.567 124.259 131.309 124.795 131.773 125.545C132.236 126.295 132.383 127.198 132.18 128.056C131.977 128.915 131.442 129.657 130.692 130.121Z" fill="#41C588"/>
</g>
<defs>
<clipPath id="clip0_952_7716">
<rect width="158.931" height="158.931" fill="white" transform="translate(36.5298) rotate(13.2881)"/>
</clipPath>
</defs>
</svg>
