<svg width="40" height="40" viewBox="0 0 40 40" fill="none" xmlns="http://www.w3.org/2000/svg">
<path d="M30.7834 3.33325H24.1167C21.5171 3.33325 19.3883 5.67291 19.1407 8.25062C19.1143 8.5255 19.3406 8.74992 19.6167 8.74992H27.45C28.1334 8.74992 28.7 9.31659 28.7 9.99992C28.7 10.6833 28.1334 11.2499 27.45 11.2499H19.6167C19.3406 11.2499 19.1167 11.4738 19.1167 11.7499V14.9166C19.1167 15.1927 19.3406 15.4166 19.6167 15.4166H23.8C24.4834 15.4166 25.05 15.9833 25.05 16.6666C25.05 17.3499 24.4834 17.9166 23.8 17.9166H19.6167C19.3406 17.9166 19.1167 18.1404 19.1167 18.4166V21.5049C19.1167 21.7791 19.3375 22.0021 19.6117 22.0049L27.45 22.0833C28.15 22.0833 28.7 22.6499 28.7 23.3499C28.6834 24.0333 28.1334 24.5833 27.45 24.5833C27.4334 24.5833 27.4334 24.5833 27.4334 24.5833L19.6217 24.505C19.3436 24.5022 19.1167 24.7269 19.1167 25.005V28.2499C19.1167 28.5261 19.3406 28.7499 19.6167 28.7499H25.6167C26.3167 28.7499 26.8667 29.3166 26.8667 29.9999C26.8667 30.6833 26.3167 31.2499 25.6167 31.2499H19.6167C19.3406 31.2499 19.1143 31.4743 19.1407 31.7492C19.3883 34.3269 21.5171 36.6666 24.1167 36.6666H30.7834C33.5334 36.6666 35.7834 34.4333 35.7834 31.6666V8.33325C35.7834 5.56659 33.5334 3.33325 30.7834 3.33325Z" fill="#6E51DF"/>
<path d="M14.0667 8.24992V9.91659C14.0667 10.1927 13.8428 10.4166 13.5667 10.4166H4.71667C4.44053 10.4166 4.21667 10.1927 4.21667 9.91659V8.24992C4.21667 5.54992 6.43334 3.33325 9.15001 3.33325C11.85 3.33325 14.0667 5.54992 14.0667 8.24992Z" fill="#6E51DF"/>
<path d="M4.21667 29.8501C4.21667 30.6001 4.53334 31.7501 4.93334 32.3834L6.28334 34.6501C7.86667 37.2834 10.4333 37.2834 12 34.6501L13.3667 32.3834C13.75 31.7501 14.0667 30.6001 14.0667 29.8501V13.4167C14.0667 13.1406 13.8428 12.9167 13.5667 12.9167H4.71667C4.44053 12.9167 4.21667 13.1406 4.21667 13.4167V29.8501Z" fill="#6E51DF"/>
</svg>
