<svg width="160" height="178" viewBox="0 0 160 178" fill="none" xmlns="http://www.w3.org/2000/svg">
<rect x="1.21631" y="0.607422" width="6.35132" height="4.83856" rx="1.34409" fill="#ABC5DF"/>
<rect x="26.6216" y="0.607422" width="6.35132" height="4.83856" rx="1.34409" fill="#ABC5DF"/>
<rect x="52.0273" y="0.607422" width="6.35144" height="4.83856" rx="1.34409" fill="#ABC5DF"/>
<rect x="77.4329" y="0.607422" width="6.35132" height="4.83856" rx="1.34409" fill="#ABC5DF"/>
<rect x="102.838" y="0.607422" width="6.35144" height="4.83856" rx="1.34409" fill="#ABC5DF"/>
<rect x="128.244" y="0.607422" width="6.35132" height="4.83856" rx="1.34409" fill="#ABC5DF"/>
<rect x="153.649" y="0.607422" width="6.35132" height="4.83856" rx="1.34409" fill="#ABC5DF"/>
<rect x="1.21631" y="19.9619" width="6.35132" height="4.83856" rx="1.34409" fill="#ABC5DF"/>
<rect x="26.6216" y="19.9619" width="6.35132" height="4.83856" rx="1.34409" fill="#ABC5DF"/>
<rect x="52.0273" y="19.9619" width="6.35144" height="4.83856" rx="1.34409" fill="#ABC5DF"/>
<rect x="77.4329" y="19.9619" width="6.35132" height="4.83856" rx="1.34409" fill="#ABC5DF"/>
<rect x="102.838" y="19.9619" width="6.35144" height="4.83856" rx="1.34409" fill="#ABC5DF"/>
<rect x="128.244" y="19.9619" width="6.35132" height="4.83856" rx="1.34409" fill="#ABC5DF"/>
<rect x="153.649" y="19.9619" width="6.35132" height="4.83856" rx="1.34409" fill="#ABC5DF"/>
<rect x="1.21631" y="39.3164" width="6.35132" height="4.83856" rx="1.34409" fill="#ABC5DF"/>
<rect x="26.6216" y="39.3164" width="6.35132" height="4.83856" rx="1.34409" fill="#ABC5DF"/>
<rect x="52.0273" y="39.3164" width="6.35144" height="4.83856" rx="1.34409" fill="#ABC5DF"/>
<rect x="77.4329" y="39.3164" width="6.35132" height="4.83856" rx="1.34409" fill="#ABC5DF"/>
<rect x="102.838" y="39.3164" width="6.35144" height="4.83856" rx="1.34409" fill="#ABC5DF"/>
<rect x="128.244" y="39.3164" width="6.35132" height="4.83856" rx="1.34409" fill="#ABC5DF"/>
<rect x="153.649" y="39.3164" width="6.35132" height="4.83856" rx="1.34409" fill="#ABC5DF"/>
<rect x="1.21631" y="58.6704" width="6.35132" height="4.83856" rx="1.34409" fill="#ABC5DF"/>
<rect x="26.6216" y="58.6704" width="6.35132" height="4.83856" rx="1.34409" fill="#ABC5DF"/>
<rect x="52.0273" y="58.6704" width="6.35144" height="4.83856" rx="1.34409" fill="#ABC5DF"/>
<rect x="77.4329" y="58.6704" width="6.35132" height="4.83856" rx="1.34409" fill="#ABC5DF"/>
<rect x="102.838" y="58.6704" width="6.35144" height="4.83856" rx="1.34409" fill="#ABC5DF"/>
<rect x="128.244" y="58.6704" width="6.35132" height="4.83856" rx="1.34409" fill="#ABC5DF"/>
<rect x="153.649" y="58.6704" width="6.35132" height="4.83856" rx="1.34409" fill="#ABC5DF"/>
<rect x="1.21631" y="78.0249" width="6.35132" height="4.83856" rx="1.34409" fill="#ABC5DF"/>
<rect x="26.6216" y="78.0249" width="6.35132" height="4.83856" rx="1.34409" fill="#ABC5DF"/>
<rect x="52.0273" y="78.0249" width="6.35144" height="4.83856" rx="1.34409" fill="#ABC5DF"/>
<rect x="77.4329" y="78.0249" width="6.35132" height="4.83856" rx="1.34409" fill="#ABC5DF"/>
<rect x="102.838" y="78.0249" width="6.35144" height="4.83856" rx="1.34409" fill="#ABC5DF"/>
<rect x="128.244" y="78.0249" width="6.35132" height="4.83856" rx="1.34409" fill="#ABC5DF"/>
<rect x="153.649" y="78.0249" width="6.35132" height="4.83856" rx="1.34409" fill="#ABC5DF"/>
<rect x="1.21631" y="97.3789" width="6.35132" height="4.83862" rx="1.34409" fill="#ABC5DF"/>
<rect x="26.6216" y="97.3789" width="6.35132" height="4.83862" rx="1.34409" fill="#ABC5DF"/>
<rect x="52.0273" y="97.3789" width="6.35144" height="4.83862" rx="1.34409" fill="#ABC5DF"/>
<rect x="77.4329" y="97.3789" width="6.35132" height="4.83862" rx="1.34409" fill="#ABC5DF"/>
<rect x="102.838" y="97.3789" width="6.35144" height="4.83862" rx="1.34409" fill="#ABC5DF"/>
<rect x="128.244" y="97.3789" width="6.35132" height="4.83862" rx="1.34409" fill="#ABC5DF"/>
<rect x="153.649" y="97.3789" width="6.35132" height="4.83862" rx="1.34409" fill="#ABC5DF"/>
<rect x="1.21631" y="116.733" width="6.35132" height="4.83862" rx="1.34409" fill="#ABC5DF"/>
<rect x="1.21631" y="135.4" width="6.35132" height="4.83856" rx="1.34409" fill="#ABC5DF"/>
<rect x="1.21631" y="154.066" width="6.35132" height="4.83862" rx="1.34409" fill="#ABC5DF"/>
<rect x="1.21631" y="172.733" width="6.35132" height="4.83849" rx="1.34409" fill="#ABC5DF"/>
<rect x="26.6216" y="116.733" width="6.35132" height="4.83862" rx="1.34409" fill="#ABC5DF"/>
<rect x="26.6216" y="135.4" width="6.35132" height="4.83856" rx="1.34409" fill="#ABC5DF"/>
<rect x="26.6216" y="154.066" width="6.35132" height="4.83862" rx="1.34409" fill="#ABC5DF"/>
<rect x="26.6216" y="172.733" width="6.35132" height="4.83849" rx="1.34409" fill="#ABC5DF"/>
<rect x="52.0273" y="116.733" width="6.35144" height="4.83862" rx="1.34409" fill="#ABC5DF"/>
<rect x="52.0273" y="135.4" width="6.35144" height="4.83856" rx="1.34409" fill="#ABC5DF"/>
<rect x="52.0273" y="154.066" width="6.35144" height="4.83862" rx="1.34409" fill="#ABC5DF"/>
<rect x="52.0273" y="172.733" width="6.35144" height="4.83849" rx="1.34409" fill="#ABC5DF"/>
<rect x="77.4329" y="116.733" width="6.35132" height="4.83862" rx="1.34409" fill="#ABC5DF"/>
<rect x="77.4329" y="135.4" width="6.35132" height="4.83856" rx="1.34409" fill="#ABC5DF"/>
<rect x="77.4329" y="154.066" width="6.35132" height="4.83862" rx="1.34409" fill="#ABC5DF"/>
<rect x="77.4329" y="172.733" width="6.35132" height="4.83849" rx="1.34409" fill="#ABC5DF"/>
<rect x="102.838" y="116.733" width="6.35144" height="4.83862" rx="1.34409" fill="#ABC5DF"/>
<rect x="102.838" y="135.4" width="6.35144" height="4.83856" rx="1.34409" fill="#ABC5DF"/>
<rect x="102.838" y="154.066" width="6.35144" height="4.83862" rx="1.34409" fill="#ABC5DF"/>
<rect x="102.838" y="172.733" width="6.35144" height="4.83849" rx="1.34409" fill="#ABC5DF"/>
<rect x="128.244" y="116.733" width="6.35132" height="4.83862" rx="1.34409" fill="#ABC5DF"/>
<rect x="128.244" y="135.4" width="6.35132" height="4.83856" rx="1.34409" fill="#ABC5DF"/>
<rect x="128.244" y="154.066" width="6.35132" height="4.83862" rx="1.34409" fill="#ABC5DF"/>
<rect x="128.244" y="172.733" width="6.35132" height="4.83849" rx="1.34409" fill="#ABC5DF"/>
<rect x="153.649" y="116.733" width="6.35132" height="4.83862" rx="1.34409" fill="#ABC5DF"/>
<rect x="153.649" y="135.4" width="6.35132" height="4.83856" rx="1.34409" fill="#ABC5DF"/>
<rect x="153.649" y="154.066" width="6.35132" height="4.83862" rx="1.34409" fill="#ABC5DF"/>
<rect x="153.649" y="172.733" width="6.35132" height="4.83849" rx="1.34409" fill="#ABC5DF"/>
</svg>
