<svg width="216" height="212" viewBox="0 0 216 212" fill="none" xmlns="http://www.w3.org/2000/svg">
<rect y="0.490967" width="6.35132" height="5.77298" rx="1.34409" fill="#4E74F9"/>
<rect x="25.4058" y="0.490967" width="6.35132" height="5.77298" rx="1.34409" fill="#4E74F9"/>
<rect x="50.811" y="0.490967" width="6.35132" height="5.77298" rx="1.34409" fill="#4E74F9"/>
<rect x="76.2163" y="0.490967" width="6.35132" height="5.77298" rx="1.34409" fill="#4E74F9"/>
<rect x="101.622" y="0.490967" width="6.35132" height="5.77298" rx="1.34409" fill="#4E74F9"/>
<rect x="127.027" y="0.490967" width="6.35144" height="5.77298" rx="1.34409" fill="#4E74F9"/>
<rect x="152.433" y="0.490967" width="6.35132" height="5.77298" rx="1.34409" fill="#4E74F9"/>
<rect x="177.838" y="0.490967" width="6.35144" height="5.77298" rx="1.34409" fill="#4E74F9"/>
<rect x="203.244" y="0.490967" width="6.35132" height="5.77298" rx="1.34409" fill="#4E74F9"/>
<rect y="23.5828" width="6.35132" height="5.77298" rx="1.34409" fill="#4E74F9"/>
<rect x="25.4058" y="23.5828" width="6.35132" height="5.77297" rx="1.34409" fill="#4E74F9"/>
<rect x="50.811" y="23.5828" width="6.35132" height="5.77297" rx="1.34409" fill="#4E74F9"/>
<rect x="76.2163" y="23.5828" width="6.35132" height="5.77297" rx="1.34409" fill="#4E74F9"/>
<rect x="101.622" y="23.5828" width="6.35132" height="5.77297" rx="1.34409" fill="#4E74F9"/>
<rect x="127.027" y="23.5828" width="6.35144" height="5.77297" rx="1.34409" fill="#4E74F9"/>
<rect x="152.433" y="23.5828" width="6.35132" height="5.77297" rx="1.34409" fill="#4E74F9"/>
<rect x="177.838" y="23.5828" width="6.35144" height="5.77297" rx="1.34409" fill="#4E74F9"/>
<rect x="203.244" y="23.5828" width="6.35132" height="5.77297" rx="1.34409" fill="#4E74F9"/>
<rect y="46.6748" width="6.35132" height="5.77298" rx="1.34409" fill="#4E74F9"/>
<rect x="25.4058" y="46.6748" width="6.35132" height="5.77298" rx="1.34409" fill="#4E74F9"/>
<rect x="50.811" y="46.6748" width="6.35132" height="5.77298" rx="1.34409" fill="#4E74F9"/>
<rect x="76.2163" y="46.6748" width="6.35132" height="5.77298" rx="1.34409" fill="#4E74F9"/>
<rect x="101.622" y="46.6748" width="6.35132" height="5.77298" rx="1.34409" fill="#4E74F9"/>
<rect x="127.027" y="46.6748" width="6.35144" height="5.77298" rx="1.34409" fill="#4E74F9"/>
<rect x="152.433" y="46.6748" width="6.35132" height="5.77298" rx="1.34409" fill="#4E74F9"/>
<rect x="177.838" y="46.6748" width="6.35144" height="5.77298" rx="1.34409" fill="#4E74F9"/>
<rect x="203.244" y="46.6748" width="6.35132" height="5.77298" rx="1.34409" fill="#4E74F9"/>
<rect y="69.7666" width="6.35132" height="5.77299" rx="1.34409" fill="#4E74F9"/>
<rect x="25.4058" y="69.7666" width="6.35132" height="5.77299" rx="1.34409" fill="#4E74F9"/>
<rect x="50.811" y="69.7666" width="6.35132" height="5.77299" rx="1.34409" fill="#4E74F9"/>
<rect x="76.2163" y="69.7666" width="6.35132" height="5.77299" rx="1.34409" fill="#4E74F9"/>
<rect x="101.622" y="69.7666" width="6.35132" height="5.77299" rx="1.34409" fill="#4E74F9"/>
<rect x="127.027" y="69.7666" width="6.35144" height="5.77299" rx="1.34409" fill="#4E74F9"/>
<rect x="152.433" y="69.7666" width="6.35132" height="5.77299" rx="1.34409" fill="#4E74F9"/>
<rect x="177.838" y="69.7666" width="6.35144" height="5.77299" rx="1.34409" fill="#4E74F9"/>
<rect x="203.244" y="69.7666" width="6.35132" height="5.77299" rx="1.34409" fill="#4E74F9"/>
<rect y="92.8586" width="6.35132" height="5.77298" rx="1.34409" fill="#4E74F9"/>
<rect x="25.4058" y="92.8586" width="6.35132" height="5.77298" rx="1.34409" fill="#4E74F9"/>
<rect x="50.811" y="92.8586" width="6.35132" height="5.77298" rx="1.34409" fill="#4E74F9"/>
<rect x="76.2163" y="92.8586" width="6.35132" height="5.77298" rx="1.34409" fill="#4E74F9"/>
<rect x="101.622" y="92.8586" width="6.35132" height="5.77298" rx="1.34409" fill="#4E74F9"/>
<rect x="127.027" y="92.8586" width="6.35144" height="5.77298" rx="1.34409" fill="#4E74F9"/>
<rect x="152.433" y="92.8586" width="6.35132" height="5.77298" rx="1.34409" fill="#4E74F9"/>
<rect x="177.838" y="92.8586" width="6.35144" height="5.77298" rx="1.34409" fill="#4E74F9"/>
<rect x="203.244" y="92.8586" width="6.35132" height="5.77298" rx="1.34409" fill="#4E74F9"/>
<rect y="115.95" width="6.35132" height="5.77298" rx="1.34409" fill="#4E74F9"/>
<rect x="25.4058" y="115.95" width="6.35132" height="5.77298" rx="1.34409" fill="#4E74F9"/>
<rect x="50.811" y="115.95" width="6.35132" height="5.77298" rx="1.34409" fill="#4E74F9"/>
<rect x="76.2163" y="115.95" width="6.35132" height="5.77298" rx="1.34409" fill="#4E74F9"/>
<rect x="101.622" y="115.95" width="6.35132" height="5.77298" rx="1.34409" fill="#4E74F9"/>
<rect x="127.027" y="115.95" width="6.35144" height="5.77298" rx="1.34409" fill="#4E74F9"/>
<rect x="152.433" y="115.95" width="6.35132" height="5.77298" rx="1.34409" fill="#4E74F9"/>
<rect x="177.838" y="115.95" width="6.35144" height="5.77298" rx="1.34409" fill="#4E74F9"/>
<rect x="203.244" y="115.95" width="6.35132" height="5.77298" rx="1.34409" fill="#4E74F9"/>
<rect y="139.042" width="6.35132" height="5.77298" rx="1.34409" fill="#4E74F9"/>
<rect y="161.314" width="6.35132" height="5.77299" rx="1.34409" fill="#4E74F9"/>
<rect y="183.585" width="6.35132" height="5.77298" rx="1.34409" fill="#4E74F9"/>
<rect y="205.856" width="6.35132" height="5.77295" rx="1.34409" fill="#4E74F9"/>
<rect x="25.4058" y="139.042" width="6.35132" height="5.77298" rx="1.34409" fill="#4E74F9"/>
<rect x="25.4058" y="161.314" width="6.35132" height="5.77299" rx="1.34409" fill="#4E74F9"/>
<rect x="25.4058" y="183.585" width="6.35132" height="5.77298" rx="1.34409" fill="#4E74F9"/>
<rect x="25.4058" y="205.856" width="6.35132" height="5.77295" rx="1.34409" fill="#4E74F9"/>
<rect x="50.811" y="139.042" width="6.35132" height="5.77298" rx="1.34409" fill="#4E74F9"/>
<rect x="50.811" y="161.314" width="6.35132" height="5.77299" rx="1.34409" fill="#4E74F9"/>
<rect x="50.811" y="183.585" width="6.35132" height="5.77298" rx="1.34409" fill="#4E74F9"/>
<rect x="50.811" y="205.856" width="6.35132" height="5.77295" rx="1.34409" fill="#4E74F9"/>
<rect x="76.2163" y="139.042" width="6.35132" height="5.77298" rx="1.34409" fill="#4E74F9"/>
<rect x="76.2163" y="161.314" width="6.35132" height="5.77299" rx="1.34409" fill="#4E74F9"/>
<rect x="76.2163" y="183.585" width="6.35132" height="5.77298" rx="1.34409" fill="#4E74F9"/>
<rect x="76.2163" y="205.856" width="6.35132" height="5.77295" rx="1.34409" fill="#4E74F9"/>
<rect x="101.622" y="139.042" width="6.35132" height="5.77298" rx="1.34409" fill="#4E74F9"/>
<rect x="101.622" y="161.314" width="6.35132" height="5.77299" rx="1.34409" fill="#4E74F9"/>
<rect x="101.622" y="183.585" width="6.35132" height="5.77298" rx="1.34409" fill="#4E74F9"/>
<rect x="101.622" y="205.856" width="6.35132" height="5.77295" rx="1.34409" fill="#4E74F9"/>
<rect x="127.027" y="139.042" width="6.35144" height="5.77298" rx="1.34409" fill="#4E74F9"/>
<rect x="127.027" y="161.314" width="6.35144" height="5.77299" rx="1.34409" fill="#4E74F9"/>
<rect x="127.027" y="183.585" width="6.35144" height="5.77298" rx="1.34409" fill="#4E74F9"/>
<rect x="127.027" y="205.856" width="6.35144" height="5.77295" rx="1.34409" fill="#4E74F9"/>
<rect x="152.433" y="139.042" width="6.35132" height="5.77298" rx="1.34409" fill="#4E74F9"/>
<rect x="152.433" y="161.314" width="6.35132" height="5.77299" rx="1.34409" fill="#4E74F9"/>
<rect x="152.433" y="183.585" width="6.35132" height="5.77298" rx="1.34409" fill="#4E74F9"/>
<rect x="152.433" y="205.856" width="6.35132" height="5.77295" rx="1.34409" fill="#4E74F9"/>
<rect x="177.838" y="139.042" width="6.35144" height="5.77298" rx="1.34409" fill="#4E74F9"/>
<rect x="177.838" y="161.314" width="6.35144" height="5.77299" rx="1.34409" fill="#4E74F9"/>
<rect x="177.838" y="183.585" width="6.35144" height="5.77298" rx="1.34409" fill="#4E74F9"/>
<rect x="177.838" y="205.856" width="6.35144" height="5.77295" rx="1.34409" fill="#4E74F9"/>
<rect x="203.244" y="139.042" width="6.35132" height="5.77298" rx="1.34409" fill="#4E74F9"/>
<rect x="203.244" y="161.314" width="6.35132" height="5.77299" rx="1.34409" fill="#4E74F9"/>
<rect x="203.244" y="183.585" width="6.35132" height="5.77298" rx="1.34409" fill="#4E74F9"/>
<rect x="203.244" y="205.856" width="6.35132" height="5.77295" rx="1.34409" fill="#4E74F9"/>
</svg>
